<svg width="1210" height="642" viewBox="0 0 1210 642" fill="none" xmlns="http://www.w3.org/2000/svg" style="">
<path d="M1 374.41C28.4612 336.406 58.2026 300.05 90.0087 265.602C104.147 250.287 119.107 235.046 137.85 225.927C185.761 202.618 243.054 225.247 288.188 253.561C329.757 279.64 368.21 310.683 402.467 345.818C436.416 380.638 466.876 419.978 508.006 445.926C549.134 471.873 605.59 481.469 645.333 453.446C668.981 436.773 683.219 409.102 688.606 380.675C693.993 352.247 691.349 322.903 686.737 294.34C681.456 261.637 673.71 227.52 684.037 196.044C694.729 163.461 725.656 138.503 759.763 134.933C808.285 129.855 850.946 163.638 891.838 190.246C943.788 224.051 1004.16 249.213 1066.04 245.656C1127.91 242.099 1190.44 204.249 1209 145.112" stroke="white" stroke-width="1.91107" stroke-miterlimit="10" class="zzXPXdSf_0"></path>
<path d="M7.4082 387.102C34.3696 349.718 63.7259 314.078 95.1912 280.444C109.178 265.493 123.972 250.649 142.39 241.677C179.387 223.654 221.986 232.814 260.17 250.556C270.577 255.384 280.657 260.847 290.207 266.572C331.282 291.212 369.413 320.791 403.529 354.446C437.333 387.796 467.668 425.837 508.369 450.827C531.187 464.837 558.224 474.431 584.855 476.157C608.051 477.649 631.063 473.031 650.302 459.874C653.739 457.525 656.989 454.948 660.055 452.166C678.936 435.021 690.404 410.369 695.424 385.119C697.035 377.008 698.04 368.825 698.578 360.625C699.988 339.204 698.336 317.524 695.876 296.345C692.013 262.743 686.865 228.324 698.49 196.915C710.036 165.72 739.691 141.467 772.986 137.812C820.358 132.613 862.157 164.447 902.146 189.186C905.299 191.136 908.482 193.053 911.693 194.932C960.232 223.331 1015.17 243.03 1070.98 238.512C1130.47 233.697 1190.14 196.045 1207.38 138.25" stroke="white" stroke-width="1.91107" stroke-miterlimit="10" class="zzXPXdSf_1"></path>
<path d="M13.8164 399.799C40.2762 363.035 69.2475 328.108 100.374 295.29C114.207 280.704 128.836 266.258 146.933 257.431C183.268 239.705 225.014 247.967 262.591 264.556C272.843 269.068 282.787 274.197 292.23 279.586C332.81 302.787 370.618 330.906 404.597 363.077C438.257 394.958 468.486 431.665 508.737 455.73C532.423 469.891 560.167 479.893 587.609 482.048C611.458 483.903 635.322 479.553 655.276 466.304C658.848 463.936 662.232 461.323 665.423 458.487C685.094 441.014 696.841 415.605 702.246 389.565C703.977 381.215 705.109 372.79 705.799 364.365C707.603 342.354 706.603 320.056 705.017 298.354C702.572 263.851 699.978 229.178 712.944 197.793C725.254 167.993 753.727 144.437 786.21 140.698C832.432 135.374 873.37 165.262 912.454 188.131C915.536 189.935 918.645 191.703 921.78 193.435C969.177 219.604 1022.34 237.073 1075.91 231.37C1133.03 225.298 1189.85 187.843 1205.76 131.39" stroke="white" stroke-width="1.91107" stroke-miterlimit="10" class="zzXPXdSf_2"></path>
<path d="M20.2246 412.492C46.1828 376.348 74.7708 342.137 105.558 310.133C119.237 295.911 133.703 281.863 151.474 273.182C187.148 255.754 228.038 263.118 265.011 278.555C275.11 282.751 284.916 287.545 294.25 292.6C334.337 314.361 371.823 341.019 405.66 371.707C439.176 402.118 469.325 437.465 509.101 460.631C533.665 474.937 562.107 485.354 590.361 487.938C614.862 490.153 639.58 486.075 660.247 472.731C663.952 470.343 667.469 467.696 670.789 464.806C691.248 447.004 703.275 420.84 709.065 394.009C710.914 385.42 712.175 376.753 713.016 368.102C715.213 345.501 714.867 322.586 714.155 300.36C713.129 264.958 713.037 230.068 727.397 198.665C740.386 170.257 767.762 147.402 799.432 143.576C844.504 138.131 884.58 166.071 922.762 187.071C925.772 188.726 928.808 190.348 931.869 191.932C978.123 215.87 1029.51 231.11 1080.86 224.224C1135.6 216.894 1189.55 179.636 1204.15 124.526" stroke="white" stroke-width="1.91107" stroke-miterlimit="10" class="zzXPXdSf_3"></path>
<path d="M26.6309 425.187C52.0892 389.663 80.2904 356.165 110.738 324.978C124.264 311.121 138.567 297.471 156.015 288.933C191.027 271.805 231.064 278.269 267.429 292.552C277.372 296.433 287.044 300.892 296.271 305.61C335.863 325.934 373.026 351.127 406.723 380.334C440.094 409.273 470.182 443.234 509.466 465.529C534.916 479.973 564.048 490.812 593.113 493.826C618.266 496.402 643.837 492.593 665.217 479.155C669.057 476.748 672.706 474.065 676.153 471.123C697.399 452.991 709.708 426.072 715.885 398.45C717.854 389.62 719.242 380.711 720.233 371.834C722.824 348.644 723.131 325.111 723.294 302.36C723.686 266.059 726.044 230.982 741.848 199.533C755.427 172.509 781.796 150.361 812.654 146.452C856.576 140.883 895.79 166.877 933.07 186.009C936.009 187.517 938.971 188.99 941.956 190.428C987.067 212.135 1036.68 225.146 1085.79 217.076C1138.15 208.487 1189.26 171.428 1202.53 117.661" stroke="white" stroke-width="1.91107" stroke-miterlimit="10" class="zzXPXdSf_4"></path>
<path d="M33.0398 437.881C57.9965 402.976 85.8145 370.195 115.922 339.823C129.295 326.329 143.432 313.077 160.556 304.685C194.907 287.855 234.087 293.42 269.848 306.55C279.638 310.115 289.174 314.239 298.291 318.623C337.39 337.507 374.23 361.24 407.786 388.962C441.012 416.432 471.056 448.98 509.83 470.429C536.171 485.002 565.987 496.273 595.862 499.715C621.669 502.654 648.091 499.113 670.185 485.582C674.159 483.155 677.94 480.437 681.517 477.441C703.551 458.981 716.14 431.306 722.702 402.893C724.789 393.825 726.308 384.672 727.449 375.571C730.434 351.789 731.347 327.637 732.432 304.366C734.166 267.16 738.993 231.919 756.299 200.404C770.384 174.752 795.829 153.326 825.876 149.332C868.648 143.641 907 167.687 943.375 184.948C946.244 186.308 949.133 187.634 952.04 188.924C996.009 208.4 1043.85 219.183 1090.73 209.929C1140.71 200.083 1188.96 163.222 1200.9 110.795" stroke="white" stroke-width="1.91107" stroke-miterlimit="10" class="zzXPXdSf_5"></path>
<path d="M39.4495 450.576C63.9046 416.29 91.3393 384.222 121.105 354.666C134.326 341.536 148.298 328.682 165.1 320.437C198.791 303.903 237.116 308.571 272.269 320.55C281.904 323.798 291.304 327.588 300.315 331.636C338.919 349.083 375.436 371.352 408.853 397.592C441.936 423.593 471.949 454.703 510.197 475.331C537.439 490.024 567.928 501.734 598.618 505.606C625.076 508.905 652.353 505.634 675.16 492.011C679.268 489.563 683.182 486.811 686.886 483.763C709.709 464.974 722.578 436.543 729.524 407.339C731.732 398.031 733.378 388.636 734.669 379.31C738.05 354.938 739.61 330.167 741.572 306.374C744.716 268.266 751.885 232.871 770.753 201.28C785.266 176.979 809.866 156.295 839.099 152.217C880.722 146.402 918.212 168.501 953.684 183.894C956.482 185.107 959.298 186.285 962.129 187.428C1004.95 204.675 1051.02 213.227 1095.67 202.791C1143.27 191.686 1188.66 155.023 1199.29 103.939" stroke="white" stroke-width="1.91107" stroke-miterlimit="10" class="zzXPXdSf_6"></path>
<path d="M45.8574 463.271C69.8127 429.605 96.8606 398.253 126.288 369.511C139.354 356.745 153.162 344.289 169.641 336.189C202.67 319.954 240.14 323.724 274.687 334.549C284.168 337.481 293.432 340.937 302.334 344.65C340.444 360.657 376.639 381.465 409.916 406.224C442.855 430.755 472.854 460.406 510.561 480.234C538.711 495.036 569.867 507.197 601.368 511.498C628.477 515.159 656.608 512.156 680.129 498.44C684.371 495.972 688.418 493.185 692.25 490.084C715.861 470.966 729.011 441.78 736.342 411.786C738.67 402.239 740.443 392.601 741.886 383.051C745.661 358.089 747.87 332.698 750.71 308.384C755.267 269.373 764.711 233.821 785.205 202.156C800.071 179.185 823.899 159.264 852.321 155.101C892.792 149.164 929.422 169.315 963.992 182.837C966.718 183.902 969.461 184.936 972.218 185.928C1013.9 200.945 1058.19 207.268 1100.61 195.648C1145.83 183.286 1188.37 146.82 1197.67 97.0784" stroke="white" stroke-width="1.91107" stroke-miterlimit="10" class="zzXPXdSf_7"></path>
<path d="M52.2637 475.965C75.7173 442.919 102.382 412.28 131.468 384.356C144.381 371.954 158.025 359.896 174.181 351.941C206.548 336.004 243.145 338.945 277.105 348.546C286.428 351.181 295.561 354.283 304.355 357.662C341.97 372.23 377.842 391.575 410.98 414.852C443.773 437.913 473.771 466.085 510.925 485.133C539.988 500.033 571.807 512.657 604.12 517.386C631.883 521.408 660.866 518.676 685.099 504.866C689.476 502.379 693.656 499.558 697.614 496.402C722.013 476.956 735.442 447.015 743.162 416.228C745.608 406.441 747.51 396.561 749.103 386.785C753.272 361.233 756.133 335.222 759.849 310.385C765.822 270.472 777.474 234.752 799.658 203.025C814.809 181.356 837.935 162.226 865.543 157.976C904.865 151.916 940.632 170.121 974.298 181.774C976.953 182.693 979.622 183.578 982.303 184.424C1022.84 197.209 1065.36 201.303 1105.55 188.5C1148.39 174.881 1188.07 138.611 1196.05 90.2134" stroke="white" stroke-width="1.91107" stroke-miterlimit="10" class="zzXPXdSf_8"></path>
<path d="M58.6729 488.659C81.6249 456.233 107.904 426.31 136.652 399.2C149.412 387.161 162.892 375.503 178.723 367.692C210.428 352.054 246.171 354.101 279.525 362.544C288.691 364.865 297.689 367.631 306.375 370.672C343.495 383.802 379.046 401.683 412.042 423.479C444.693 445.069 474.697 471.742 511.288 490.031C541.273 505.018 573.745 518.113 606.869 523.274C635.284 527.657 665.121 525.195 690.067 511.291C694.578 508.785 698.891 505.929 702.978 502.72C728.164 482.945 741.875 452.248 749.979 420.67C752.545 410.643 754.575 400.523 756.32 390.521C760.882 364.377 764.395 337.748 768.987 312.39C776.377 271.575 790.166 235.662 814.109 203.897C829.484 183.498 851.968 165.19 878.765 160.856C916.936 154.674 951.842 170.93 984.605 180.713C987.189 181.483 989.784 182.22 992.389 182.919C1031.79 193.474 1072.53 195.339 1110.49 181.353C1150.94 166.476 1187.77 130.404 1194.43 83.3467" stroke="white" stroke-width="1.91107" stroke-miterlimit="10" class="zzXPXdSf_9"></path>
<path d="M65.0801 501.355C87.5323 469.547 113.427 440.339 141.833 414.045C154.44 402.37 167.756 391.109 183.263 383.445C214.308 368.104 249.196 369.257 281.942 376.545C290.955 378.551 299.816 380.98 308.395 383.687C345.021 395.378 380.248 411.798 413.105 432.11C445.611 452.231 475.633 477.387 511.651 494.934C542.564 509.993 575.684 523.576 609.62 529.166C638.689 533.91 669.377 531.718 695.038 517.721C699.683 515.193 704.129 512.304 708.343 509.041C734.319 488.936 748.309 457.485 756.798 425.116C759.482 414.851 761.642 404.486 763.536 394.26C768.492 367.526 772.658 340.279 778.125 314.398C786.933 272.68 802.79 236.538 828.559 204.773C844.102 185.613 866.001 168.159 891.986 163.74C929.008 157.434 963.052 171.744 994.913 179.659C997.426 180.282 999.946 180.87 1002.48 181.423C1040.73 189.747 1079.7 189.384 1115.43 174.213C1153.51 158.079 1187.47 122.205 1192.81 76.4902" stroke="white" stroke-width="1.91107" stroke-miterlimit="10" class="zzXPXdSf_10"></path>
<path d="M71.4883 514.048C93.4389 482.86 118.95 454.368 147.015 428.888C159.469 417.577 172.62 406.713 187.805 399.196C218.187 384.153 252.224 384.409 284.362 390.542C293.221 392.232 301.947 394.327 310.416 396.699C346.547 406.95 381.453 421.91 414.169 440.738C446.529 459.389 476.578 483.012 512.016 499.835C543.864 514.954 577.622 529.036 612.371 535.056C642.091 540.162 673.634 538.238 700.007 524.147C704.786 521.601 709.364 518.676 713.707 515.359C740.471 494.925 754.742 462.718 763.616 429.559C766.42 419.054 768.708 408.448 770.753 397.997C776.103 370.673 780.925 342.806 787.262 316.403C797.492 273.784 815.339 237.359 843.009 205.643C858.674 187.689 880.033 171.122 905.205 166.618C941.077 160.191 974.259 172.553 1005.22 178.599C1007.66 179.074 1010.11 179.517 1012.56 179.92C1049.67 186.015 1086.86 183.419 1120.36 167.067C1156.06 149.673 1187.17 113.999 1191.19 69.6262" stroke="white" stroke-width="1.91107" stroke-miterlimit="10" class="zzXPXdSf_11"></path>
<path d="M77.8965 526.743C99.3455 496.175 124.472 468.396 152.198 443.733C164.498 432.786 177.485 422.321 192.346 414.949C222.068 400.204 255.252 399.561 286.78 404.54C295.486 405.914 304.075 407.673 312.437 409.71C348.074 418.523 382.658 432.019 415.232 449.367C447.448 466.549 477.53 488.621 512.38 504.736C545.17 519.897 579.561 534.497 615.123 540.946C645.495 546.414 677.891 544.759 704.977 530.576C709.891 528.01 714.601 525.049 719.072 521.68C746.623 500.918 761.175 467.955 770.435 434.004C773.36 423.259 775.774 412.41 777.97 401.734C783.714 373.82 789.242 345.349 796.401 318.409C808.135 274.91 827.82 238.118 857.462 206.517C873.206 189.732 894.069 174.089 918.429 169.499C953.151 162.949 985.471 173.363 1015.52 177.538C1017.9 177.867 1020.27 178.162 1022.65 178.418C1058.62 182.282 1094.03 177.457 1125.3 159.92C1158.62 141.269 1186.88 105.793 1189.57 62.7605" stroke="white" stroke-width="1.91107" stroke-miterlimit="10" class="zzXPXdSf_12"></path>
<path d="M84.3047 539.439C105.254 509.491 129.995 482.427 157.38 458.579C169.527 447.996 182.351 437.929 196.887 430.703C225.947 416.257 258.279 414.715 289.201 418.542C297.754 419.6 306.204 421.026 314.457 422.727C349.6 430.101 383.861 442.136 416.298 458C448.371 473.712 478.492 494.22 512.748 509.641C546.488 524.828 581.505 539.961 617.877 546.839C648.9 552.668 682.151 551.283 709.95 537.006C714.998 534.419 719.841 531.425 724.44 528.002C752.779 506.912 767.612 473.193 777.257 438.451C780.3 427.467 782.844 416.375 785.191 405.474C791.328 376.969 797.51 347.881 805.543 320.418C818.696 276.021 840.232 238.799 871.918 207.392C887.709 191.74 908.106 177.058 931.655 172.382C965.227 165.71 996.685 174.177 1025.84 176.484C1028.14 176.664 1030.44 176.81 1032.74 176.92C1067.57 178.554 1101.21 171.499 1130.25 152.779C1161.18 132.87 1186.59 97.59 1187.96 55.9019" stroke="white" stroke-width="1.91107" stroke-miterlimit="10" class="zzXPXdSf_13"></path>
<path d="M90.7119 552.131C111.159 522.803 135.516 496.455 162.562 473.421C174.556 463.202 187.215 453.534 201.427 446.451C229.827 432.304 261.308 429.859 291.618 432.537C300.018 433.279 308.332 434.369 316.477 435.736C351.125 441.672 385.065 452.243 417.36 466.625C449.288 480.868 479.455 499.796 513.111 514.537C547.806 529.736 583.444 545.418 620.626 552.725C652.303 558.915 686.405 557.801 714.919 543.431C720.101 540.824 725.077 537.795 729.803 534.319C758.932 512.9 774.044 478.425 784.074 442.892C787.237 431.668 789.908 420.334 792.405 409.209C798.937 380.114 805.772 350.408 814.679 322.422C829.249 277.125 852.564 239.381 886.368 208.264C902.183 193.705 922.139 180.022 944.874 175.262C977.297 168.467 1007.89 174.987 1036.14 175.423C1038.37 175.456 1040.6 175.455 1042.83 175.417C1076.51 174.821 1108.38 165.537 1135.18 145.634C1163.74 124.467 1186.29 89.3849 1186.34 49.0391" stroke="white" stroke-width="1.91107" stroke-miterlimit="10" class="zzXPXdSf_14"></path>
<path d="M97.1191 564.827C117.065 536.117 141.038 510.484 167.743 488.267C179.584 478.411 192.078 469.14 205.968 462.204C233.705 448.354 264.334 445.007 294.035 446.536C302.282 446.96 310.459 447.718 318.496 448.749C352.651 453.246 386.265 462.356 418.421 475.255C450.204 488.027 480.421 505.364 513.472 519.439C549.132 534.627 585.38 550.879 623.375 558.615C655.704 565.166 690.659 564.322 719.887 549.858C725.203 547.232 730.313 544.168 735.166 540.639C765.083 518.89 780.475 483.66 790.891 447.338C794.172 435.875 796.974 424.298 799.621 412.946C806.547 383.261 814.034 352.937 823.815 324.427C839.803 278.231 864.827 239.855 900.817 209.135C916.637 195.632 936.17 182.986 958.094 178.141C989.366 171.223 1019.1 175.796 1046.45 174.363C1048.6 174.249 1050.76 174.102 1052.91 173.915C1085.45 171.087 1115.54 159.575 1140.12 138.488C1166.29 116.064 1185.99 81.1793 1184.71 42.1741" stroke="white" stroke-width="1.91107" stroke-miterlimit="10" class="zzXPXdSf_15"></path>
<path d="M103.527 577.521C122.973 549.431 146.561 524.513 172.926 503.11C184.613 493.62 196.943 484.747 210.509 477.956C237.585 464.403 267.362 460.15 296.455 460.534C304.548 460.64 312.588 461.063 320.518 461.761C354.179 464.818 387.472 472.466 419.487 483.883C451.125 495.185 481.396 510.915 513.838 524.338C550.468 539.494 587.32 556.339 626.127 564.504C659.11 571.417 694.918 570.841 724.857 556.284C730.308 553.638 735.55 550.539 740.531 546.957C771.235 524.879 786.908 488.894 797.709 451.78C801.111 440.077 804.039 428.259 806.837 416.682C814.156 386.407 822.296 355.465 832.952 326.431C850.358 279.335 877.023 240.201 915.267 210.007C931.082 197.522 950.203 185.951 971.312 181.022C1001.44 173.982 1030.31 176.608 1056.75 173.305C1058.84 173.044 1060.92 172.749 1062.99 172.415C1094.39 167.358 1122.71 153.615 1145.05 131.345C1168.85 107.664 1185.69 72.9769 1183.09 35.314" stroke="white" stroke-width="1.91107" stroke-miterlimit="10" class="zzXPXdSf_16"></path>
<path d="M109.936 590.215C128.88 562.745 152.083 538.541 178.108 517.953C189.642 508.827 201.809 500.351 215.05 493.707C241.466 480.453 270.39 475.292 298.874 474.533C306.813 474.321 314.717 474.413 322.537 474.773C355.704 476.392 388.674 482.578 420.549 492.511C452.044 502.344 482.37 516.456 514.201 529.238C551.809 544.341 589.258 561.798 628.878 570.393C662.512 577.666 699.174 577.36 729.826 562.711C735.413 560.044 740.786 556.911 745.895 553.276C777.387 530.87 793.341 494.131 804.529 456.224C808.049 444.281 811.106 432.221 814.056 420.419C821.769 389.553 830.563 357.996 842.093 328.438C860.917 280.443 889.159 240.409 929.722 210.88C945.528 199.373 964.239 188.917 984.538 183.901C1013.51 176.737 1041.52 177.415 1067.06 172.244C1069.08 171.836 1071.09 171.393 1073.08 170.91C1103.34 163.623 1129.88 147.651 1150 124.197C1171.41 99.2583 1185.39 64.7693 1181.48 28.4487" stroke="white" stroke-width="1.91107" stroke-miterlimit="10" class="zzXPXdSf_17"></path>
<path d="M116.342 602.91C134.785 576.06 157.604 552.571 183.289 532.8C194.668 524.038 206.672 515.959 219.59 509.461C245.343 496.506 273.412 490.388 301.29 488.533C309.075 487.989 316.843 487.763 324.556 487.788C357.228 487.968 389.877 492.691 421.612 501.143C452.962 509.506 483.347 521.987 514.565 534.141C553.158 549.166 591.198 567.261 631.628 576.285C665.914 583.92 703.43 583.885 734.797 569.14C740.517 566.454 746.023 563.285 751.26 559.597C783.541 536.863 799.774 499.366 811.346 460.67C814.987 448.488 818.171 436.184 821.271 424.156C829.378 392.7 838.824 360.525 851.229 330.444C871.47 281.55 901.238 240.462 944.172 211.754C959.974 201.187 978.272 191.882 997.759 186.783C1025.58 179.498 1052.73 178.23 1077.37 171.188C1079.31 170.631 1081.24 170.041 1083.17 169.413C1112.28 159.894 1137.05 141.693 1154.93 117.056C1173.97 90.8581 1185.09 56.5669 1179.85 21.5886" stroke="white" stroke-width="1.91107" stroke-miterlimit="10" class="zzXPXdSf_18"></path>
<path d="M122.753 615.605C140.696 589.375 163.129 566.6 188.474 547.645C199.702 539.246 211.539 531.567 224.134 525.212C249.227 512.553 276.441 505.538 303.713 502.53C311.343 501.67 318.977 501.108 326.58 500.799C358.757 499.542 391.083 502.802 422.679 509.772C453.884 516.665 484.327 527.506 514.932 539.041C554.518 553.962 593.14 572.721 634.383 582.174C669.323 590.17 707.69 590.405 739.77 575.567C745.625 572.861 751.263 569.657 756.629 565.914C789.698 542.851 806.212 504.6 818.169 465.113C821.929 452.691 825.243 440.145 828.493 427.893C836.993 395.847 847.093 363.053 860.371 332.448C882.03 282.655 913.278 240.347 958.628 212.624C974.439 202.959 992.31 194.847 1010.98 189.662C1037.66 182.252 1063.95 179.038 1087.68 170.125C1089.55 169.422 1091.41 168.684 1093.26 167.907C1121.23 156.158 1144.22 135.726 1159.87 109.908C1176.53 82.4519 1184.8 48.3586 1178.24 14.7227" stroke="white" stroke-width="1.91107" stroke-miterlimit="10" class="zzXPXdSf_19"></path>
<path d="M129.161 628.3C146.603 602.69 168.652 580.63 193.656 562.489C204.731 554.454 216.404 547.172 228.675 540.964C253.106 528.604 279.465 520.69 306.131 516.53C313.608 515.354 321.103 514.458 328.601 513.814C360.284 511.117 392.287 512.915 423.742 518.402C454.803 523.826 485.306 533.016 515.296 543.945C555.882 558.734 595.08 578.185 637.133 588.067C672.725 596.425 711.947 596.929 744.739 581.997C750.728 579.272 756.498 576.032 761.991 572.237C795.848 548.843 812.643 509.838 824.985 469.559C828.864 456.897 832.306 444.11 835.706 431.633C844.601 398.997 855.354 365.585 869.506 334.457C892.584 283.763 925.277 240.06 973.076 213.501C988.914 204.7 1006.34 197.815 1024.2 192.547C1049.72 185.016 1075.15 179.853 1097.98 169.072C1099.78 168.221 1101.57 167.336 1103.34 166.412C1130.17 152.432 1151.39 129.772 1164.81 102.77C1179.09 74.0563 1184.5 40.1608 1176.62 7.86719" stroke="white" stroke-width="1.91107" stroke-miterlimit="10" class="zzXPXdSf_20"></path>
<path d="M135.568 640.994C174.932 582.922 239.807 544.539 308.55 530.527C377.293 516.516 449.477 525.568 515.661 548.843C557.254 563.471 597.018 583.643 639.886 593.954C682.753 604.267 730.979 603.463 767.358 578.554C812.886 547.381 828.07 488.509 842.926 435.369C867.356 347.981 906.425 255.057 987.53 214.372C1027.93 194.106 1075.21 189.03 1113.43 164.907C1166.42 131.462 1192.87 61.0621 1175 1" stroke="white" stroke-width="1.91107" stroke-miterlimit="10" class="zzXPXdSf_21"></path>
<style data-made-with="vivus-instant">.zzXPXdSf_0{stroke-dasharray:1695 1697;stroke-dashoffset:1696;animation:zzXPXdSf_draw_0 7800ms linear 0ms infinite,zzXPXdSf_fade 7800ms linear 0ms infinite;}.zzXPXdSf_1{stroke-dasharray:1672 1674;stroke-dashoffset:1673;animation:zzXPXdSf_draw_1 7800ms linear 0ms infinite,zzXPXdSf_fade 7800ms linear 0ms infinite;}.zzXPXdSf_2{stroke-dasharray:1650 1652;stroke-dashoffset:1651;animation:zzXPXdSf_draw_2 7800ms linear 0ms infinite,zzXPXdSf_fade 7800ms linear 0ms infinite;}.zzXPXdSf_3{stroke-dasharray:1629 1631;stroke-dashoffset:1630;animation:zzXPXdSf_draw_3 7800ms linear 0ms infinite,zzXPXdSf_fade 7800ms linear 0ms infinite;}.zzXPXdSf_4{stroke-dasharray:1609 1611;stroke-dashoffset:1610;animation:zzXPXdSf_draw_4 7800ms linear 0ms infinite,zzXPXdSf_fade 7800ms linear 0ms infinite;}.zzXPXdSf_5{stroke-dasharray:1589 1591;stroke-dashoffset:1590;animation:zzXPXdSf_draw_5 7800ms linear 0ms infinite,zzXPXdSf_fade 7800ms linear 0ms infinite;}.zzXPXdSf_6{stroke-dasharray:1571 1573;stroke-dashoffset:1572;animation:zzXPXdSf_draw_6 7800ms linear 0ms infinite,zzXPXdSf_fade 7800ms linear 0ms infinite;}.zzXPXdSf_7{stroke-dasharray:1553 1555;stroke-dashoffset:1554;animation:zzXPXdSf_draw_7 7800ms linear 0ms infinite,zzXPXdSf_fade 7800ms linear 0ms infinite;}.zzXPXdSf_8{stroke-dasharray:1536 1538;stroke-dashoffset:1537;animation:zzXPXdSf_draw_8 7800ms linear 0ms infinite,zzXPXdSf_fade 7800ms linear 0ms infinite;}.zzXPXdSf_9{stroke-dasharray:1521 1523;stroke-dashoffset:1522;animation:zzXPXdSf_draw_9 7800ms linear 0ms infinite,zzXPXdSf_fade 7800ms linear 0ms infinite;}.zzXPXdSf_10{stroke-dasharray:1506 1508;stroke-dashoffset:1507;animation:zzXPXdSf_draw_10 7800ms linear 0ms infinite,zzXPXdSf_fade 7800ms linear 0ms infinite;}.zzXPXdSf_11{stroke-dasharray:1493 1495;stroke-dashoffset:1494;animation:zzXPXdSf_draw_11 7800ms linear 0ms infinite,zzXPXdSf_fade 7800ms linear 0ms infinite;}.zzXPXdSf_12{stroke-dasharray:1481 1483;stroke-dashoffset:1482;animation:zzXPXdSf_draw_12 7800ms linear 0ms infinite,zzXPXdSf_fade 7800ms linear 0ms infinite;}.zzXPXdSf_13{stroke-dasharray:1470 1472;stroke-dashoffset:1471;animation:zzXPXdSf_draw_13 7800ms linear 0ms infinite,zzXPXdSf_fade 7800ms linear 0ms infinite;}.zzXPXdSf_14{stroke-dasharray:1461 1463;stroke-dashoffset:1462;animation:zzXPXdSf_draw_14 7800ms linear 0ms infinite,zzXPXdSf_fade 7800ms linear 0ms infinite;}.zzXPXdSf_15{stroke-dasharray:1453 1455;stroke-dashoffset:1454;animation:zzXPXdSf_draw_15 7800ms linear 0ms infinite,zzXPXdSf_fade 7800ms linear 0ms infinite;}.zzXPXdSf_16{stroke-dasharray:1447 1449;stroke-dashoffset:1448;animation:zzXPXdSf_draw_16 7800ms linear 0ms infinite,zzXPXdSf_fade 7800ms linear 0ms infinite;}.zzXPXdSf_17{stroke-dasharray:1443 1445;stroke-dashoffset:1444;animation:zzXPXdSf_draw_17 7800ms linear 0ms infinite,zzXPXdSf_fade 7800ms linear 0ms infinite;}.zzXPXdSf_18{stroke-dasharray:1440 1442;stroke-dashoffset:1441;animation:zzXPXdSf_draw_18 7800ms linear 0ms infinite,zzXPXdSf_fade 7800ms linear 0ms infinite;}.zzXPXdSf_19{stroke-dasharray:1440 1442;stroke-dashoffset:1441;animation:zzXPXdSf_draw_19 7800ms linear 0ms infinite,zzXPXdSf_fade 7800ms linear 0ms infinite;}.zzXPXdSf_20{stroke-dasharray:1442 1444;stroke-dashoffset:1443;animation:zzXPXdSf_draw_20 7800ms linear 0ms infinite,zzXPXdSf_fade 7800ms linear 0ms infinite;}.zzXPXdSf_21{stroke-dasharray:1446 1448;stroke-dashoffset:1447;animation:zzXPXdSf_draw_21 7800ms linear 0ms infinite,zzXPXdSf_fade 7800ms linear 0ms infinite;}@keyframes zzXPXdSf_draw{100%{stroke-dashoffset:0;}}@keyframes zzXPXdSf_fade{0%{stroke-opacity:1;}93.58974358974359%{stroke-opacity:1;}100%{stroke-opacity:0;}}@keyframes zzXPXdSf_draw_0{8.974358974358974%{stroke-dashoffset: 1696}53.84615384615385%{ stroke-dashoffset: 0;}100%{ stroke-dashoffset: 0;}}@keyframes zzXPXdSf_draw_1{8.974358974358974%{stroke-dashoffset: 1673}53.84615384615385%{ stroke-dashoffset: 0;}100%{ stroke-dashoffset: 0;}}@keyframes zzXPXdSf_draw_2{8.974358974358974%{stroke-dashoffset: 1651}53.84615384615385%{ stroke-dashoffset: 0;}100%{ stroke-dashoffset: 0;}}@keyframes zzXPXdSf_draw_3{8.974358974358974%{stroke-dashoffset: 1630}53.84615384615385%{ stroke-dashoffset: 0;}100%{ stroke-dashoffset: 0;}}@keyframes zzXPXdSf_draw_4{8.974358974358974%{stroke-dashoffset: 1610}53.84615384615385%{ stroke-dashoffset: 0;}100%{ stroke-dashoffset: 0;}}@keyframes zzXPXdSf_draw_5{8.974358974358974%{stroke-dashoffset: 1590}53.84615384615385%{ stroke-dashoffset: 0;}100%{ stroke-dashoffset: 0;}}@keyframes zzXPXdSf_draw_6{8.974358974358974%{stroke-dashoffset: 1572}53.84615384615385%{ stroke-dashoffset: 0;}100%{ stroke-dashoffset: 0;}}@keyframes zzXPXdSf_draw_7{8.974358974358974%{stroke-dashoffset: 1554}53.84615384615385%{ stroke-dashoffset: 0;}100%{ stroke-dashoffset: 0;}}@keyframes zzXPXdSf_draw_8{8.974358974358974%{stroke-dashoffset: 1537}53.84615384615385%{ stroke-dashoffset: 0;}100%{ stroke-dashoffset: 0;}}@keyframes zzXPXdSf_draw_9{8.974358974358974%{stroke-dashoffset: 1522}53.84615384615385%{ stroke-dashoffset: 0;}100%{ stroke-dashoffset: 0;}}@keyframes zzXPXdSf_draw_10{8.974358974358974%{stroke-dashoffset: 1507}53.84615384615385%{ stroke-dashoffset: 0;}100%{ stroke-dashoffset: 0;}}@keyframes zzXPXdSf_draw_11{8.974358974358974%{stroke-dashoffset: 1494}53.84615384615385%{ stroke-dashoffset: 0;}100%{ stroke-dashoffset: 0;}}@keyframes zzXPXdSf_draw_12{8.974358974358974%{stroke-dashoffset: 1482}53.84615384615385%{ stroke-dashoffset: 0;}100%{ stroke-dashoffset: 0;}}@keyframes zzXPXdSf_draw_13{8.974358974358974%{stroke-dashoffset: 1471}53.84615384615385%{ stroke-dashoffset: 0;}100%{ stroke-dashoffset: 0;}}@keyframes zzXPXdSf_draw_14{8.974358974358974%{stroke-dashoffset: 1462}53.84615384615385%{ stroke-dashoffset: 0;}100%{ stroke-dashoffset: 0;}}@keyframes zzXPXdSf_draw_15{8.974358974358974%{stroke-dashoffset: 1454}53.84615384615385%{ stroke-dashoffset: 0;}100%{ stroke-dashoffset: 0;}}@keyframes zzXPXdSf_draw_16{8.974358974358974%{stroke-dashoffset: 1448}53.84615384615385%{ stroke-dashoffset: 0;}100%{ stroke-dashoffset: 0;}}@keyframes zzXPXdSf_draw_17{8.974358974358974%{stroke-dashoffset: 1444}53.84615384615385%{ stroke-dashoffset: 0;}100%{ stroke-dashoffset: 0;}}@keyframes zzXPXdSf_draw_18{8.974358974358974%{stroke-dashoffset: 1441}53.84615384615385%{ stroke-dashoffset: 0;}100%{ stroke-dashoffset: 0;}}@keyframes zzXPXdSf_draw_19{8.974358974358974%{stroke-dashoffset: 1441}53.84615384615385%{ stroke-dashoffset: 0;}100%{ stroke-dashoffset: 0;}}@keyframes zzXPXdSf_draw_20{8.974358974358974%{stroke-dashoffset: 1443}53.84615384615385%{ stroke-dashoffset: 0;}100%{ stroke-dashoffset: 0;}}@keyframes zzXPXdSf_draw_21{8.974358974358974%{stroke-dashoffset: 1447}53.84615384615385%{ stroke-dashoffset: 0;}100%{ stroke-dashoffset: 0;}}</style></svg>
