<svg width="2316" height="563" viewBox="0 0 2316 563" fill="none" xmlns="http://www.w3.org/2000/svg" style="">
<g opacity="0.1">
<path d="M1 80.6472C62.2915 17.1472 233.516 -68.5528 428.082 96.6472C622.649 261.847 1022.59 219.814 1198.24 178.147C1292.63 142.647 1513.82 92.9472 1643.53 178.147C1773.25 263.347 1886.74 227.981 1927.28 199.647" stroke="#5CBDBC" stroke-opacity="100" class="nHViZoAs_0"></path>
<path d="M12.7491 90.6472C74.0407 27.1472 245.265 -58.5528 439.832 106.647C634.398 271.847 1034.34 229.814 1209.99 188.147C1304.38 152.647 1525.57 102.947 1655.28 188.147C1784.99 273.347 1898.49 237.981 1939.03 209.647" stroke="#5CBDBC" stroke-opacity="100" class="nHViZoAs_1"></path>
<path d="M24.498 100.647C85.7896 37.1472 257.014 -48.5528 451.581 116.647C646.147 281.847 1046.09 239.814 1221.74 198.147C1316.12 162.647 1537.32 112.947 1667.03 198.147C1796.74 283.347 1910.24 247.981 1950.78 219.647" stroke="#5CBDBC" stroke-opacity="100" class="nHViZoAs_2"></path>
<path d="M36.2471 110.647C97.5386 47.1472 268.763 -38.5528 463.33 126.647C657.896 291.847 1057.84 249.814 1233.49 208.147C1327.87 172.647 1549.07 122.947 1678.78 208.147C1808.49 293.347 1921.99 257.981 1962.52 229.647" stroke="#5CBDBC" stroke-opacity="100" class="nHViZoAs_3"></path>
<path d="M47.9971 120.647C109.289 57.1472 280.513 -28.5528 475.08 136.647C669.646 301.847 1069.59 259.814 1245.24 218.147C1339.62 182.647 1560.82 132.947 1690.53 218.147C1820.24 303.347 1933.74 267.981 1974.27 239.647" stroke="#5CBDBC" stroke-opacity="100" class="nHViZoAs_4"></path>
<path d="M59.7461 130.647C121.038 67.1472 292.262 -18.5528 486.829 146.647C681.395 311.847 1081.34 269.814 1256.99 228.147C1351.37 192.647 1572.57 142.947 1702.28 228.147C1831.99 313.347 1945.49 277.981 1986.02 249.647" stroke="#5CBDBC" stroke-opacity="100" class="nHViZoAs_5"></path>
<path d="M71.495 140.647C132.787 77.1472 304.011 -8.55283 498.577 156.647C693.144 321.847 1093.09 279.814 1268.74 238.147C1363.12 202.647 1584.32 152.947 1714.03 238.147C1843.74 323.347 1957.24 287.981 1997.77 259.647" stroke="#5CBDBC" stroke-opacity="100" class="nHViZoAs_6"></path>
<path d="M83.2441 150.647C144.536 87.1472 315.76 1.44717 510.327 166.647C704.893 331.847 1104.83 289.814 1280.49 248.147C1374.87 212.647 1596.07 162.947 1725.78 248.147C1855.49 333.347 1968.99 297.981 2009.52 269.647" stroke="#5CBDBC" stroke-opacity="100" class="nHViZoAs_7"></path>
<path d="M94.9933 160.647C156.285 97.1472 327.509 11.4472 522.076 176.647C716.642 341.847 1116.58 299.814 1292.23 258.147C1386.62 222.647 1607.82 172.947 1737.53 258.147C1867.24 343.347 1980.74 307.981 2021.27 279.647" stroke="#5CBDBC" stroke-opacity="100" class="nHViZoAs_8"></path>
<path d="M106.742 170.647C168.034 107.147 339.258 21.4472 533.825 186.647C728.391 351.847 1128.33 309.814 1303.98 268.147C1398.37 232.647 1619.57 182.947 1749.28 268.147C1878.99 353.347 1992.48 317.981 2033.02 289.647" stroke="#5CBDBC" stroke-opacity="100" class="nHViZoAs_9"></path>
<path d="M118.491 180.647C179.783 117.147 351.007 31.4472 545.574 196.647C740.14 361.847 1140.08 319.814 1315.73 278.147C1410.12 242.647 1631.31 192.947 1761.03 278.147C1890.74 363.347 2004.23 327.981 2044.77 299.647" stroke="#5CBDBC" stroke-opacity="100" class="nHViZoAs_10"></path>
<path d="M130.241 190.647C191.533 127.147 362.757 41.4472 557.324 206.647C751.89 371.847 1151.83 329.814 1327.48 288.147C1421.87 252.647 1643.06 202.947 1772.78 288.147C1902.49 373.347 2015.98 337.981 2056.52 309.647" stroke="#5CBDBC" stroke-opacity="100" class="nHViZoAs_11"></path>
<path d="M141.99 200.647C203.282 137.147 374.506 51.4472 569.073 216.647C763.639 381.847 1163.58 339.814 1339.23 298.147C1433.62 262.647 1654.81 212.947 1784.52 298.147C1914.24 383.347 2027.73 347.981 2068.27 319.647" stroke="#5CBDBC" stroke-opacity="100" class="nHViZoAs_12"></path>
<path d="M153.739 210.647C215.031 147.147 386.255 61.4472 580.822 226.647C775.388 391.847 1175.33 349.814 1350.18 308.147C1445.37 272.647 1666.56 222.947 1796.27 308.147C1925.98 393.347 2039.48 357.981 2080.02 329.647" stroke="#5CBDBC" stroke-opacity="100" class="nHViZoAs_13"></path>
<path d="M165.488 220.647C226.78 157.147 398.004 71.4472 592.571 236.647C787.137 401.847 1187.08 359.814 1362.73 318.147C1457.11 282.647 1678.31 232.947 1808.02 318.147C1937.73 403.347 2051.23 367.981 2091.77 339.647" stroke="#5CBDBC" stroke-opacity="100" class="nHViZoAs_14"></path>
<path d="M177.237 230.647C238.529 167.147 409.753 81.4472 604.32 246.647C798.886 411.847 1198.83 369.814 1374.48 328.147C1468.86 292.647 1690.06 242.947 1819.77 328.147C1949.48 413.347 2062.98 377.981 2103.51 349.647" stroke="#5CBDBC" stroke-opacity="100" class="nHViZoAs_15"></path>
<path d="M188.986 240.647C250.278 177.147 421.502 91.4472 616.069 256.647C810.635 421.847 1210.58 379.814 1386.23 338.147C1480.61 302.647 1701.81 252.947 1831.52 338.147C1961.23 423.347 2074.73 387.981 2115.26 359.647" stroke="#5CBDBC" stroke-opacity="100" class="nHViZoAs_16"></path>
<path d="M200.735 250.647C262.027 187.147 433.252 101.447 627.818 266.647C822.384 431.847 1222.33 389.814 1397.98 348.147C1492.36 312.647 1713.56 262.947 1843.27 348.147C1972.98 433.347 2086.48 397.981 2127.01 369.647" stroke="#5CBDBC" stroke-opacity="100" class="nHViZoAs_17"></path>
<path d="M212.485 260.647C273.777 197.147 445.002 111.447 639.568 276.647C834.134 441.847 1234.08 399.814 1409.73 358.147C1504.11 322.647 1725.31 272.947 1855.02 358.147C1984.73 443.347 2098.23 407.981 2138.76 379.647" stroke="#5CBDBC" stroke-opacity="100" class="nHViZoAs_18"></path>
<path d="M224.234 270.647C285.526 207.147 456.751 121.447 651.317 286.647C845.883 451.847 1245.83 409.814 1421.48 368.147C1515.86 332.647 1737.06 282.947 1866.77 368.147C1996.48 453.347 2109.98 417.981 2150.51 389.647" stroke="#5CBDBC" stroke-opacity="100" class="nHViZoAs_19"></path>
<path d="M235.983 280.647C297.275 217.147 468.499 131.447 663.066 296.647C857.632 461.847 1257.57 419.814 1433.22 378.147C1527.61 342.647 1748.81 292.947 1878.52 378.147C2008.23 463.347 2121.73 427.981 2162.26 399.647" stroke="#5CBDBC" stroke-opacity="100" class="nHViZoAs_20"></path>
<path d="M247.732 290.647C309.024 227.147 480.249 141.447 674.815 306.647C869.381 471.847 1269.32 429.814 1444.97 388.147C1539.36 352.647 1760.56 302.947 1890.27 388.147C2019.98 473.347 2133.47 437.981 2174.01 409.647" stroke="#5CBDBC" stroke-opacity="100" class="nHViZoAs_21"></path>
<path d="M259.482 300.647C320.774 237.147 491.999 151.447 686.565 316.647C881.131 481.847 1281.07 439.814 1456.72 398.147C1551.11 362.647 1772.31 312.947 1902.02 398.147C2031.73 483.347 2145.22 447.981 2185.76 419.647" stroke="#5CBDBC" stroke-opacity="100" class="nHViZoAs_22"></path>
<path d="M271.231 310.647C332.523 247.147 503.747 161.447 698.314 326.647C892.88 491.847 1292.82 449.814 1468.47 408.147C1562.86 372.647 1784.05 322.947 1913.77 408.147C2043.48 493.347 2156.97 457.981 2197.51 429.647" stroke="#5CBDBC" stroke-opacity="100" class="nHViZoAs_23"></path>
<path d="M282.98 320.647C344.272 257.147 515.497 171.447 710.063 336.647C904.629 501.847 1304.57 459.814 1480.22 418.147C1574.61 382.647 1795.8 332.947 1925.52 418.147C2055.23 503.347 2168.72 467.981 2209.26 439.647" stroke="#5CBDBC" stroke-opacity="100" class="nHViZoAs_24"></path>
<path d="M294.729 330.647C356.021 267.147 527.246 181.447 721.812 346.647C916.378 511.847 1316.32 469.814 1491.97 428.147C1586.36 392.647 1807.55 342.947 1937.26 428.147C2066.97 513.347 2180.47 477.981 2221.01 449.647" stroke="#5CBDBC" stroke-opacity="100" class="nHViZoAs_25"></path>
<path d="M306.479 340.647C367.77 277.147 538.995 191.447 733.561 356.647C928.128 521.847 1328.07 479.814 1503.72 438.147C1598.1 402.647 1819.3 352.947 1949.01 438.147C2078.72 523.347 2192.22 487.981 2232.76 459.647" stroke="#5CBDBC" stroke-opacity="100" class="nHViZoAs_26"></path>
<path d="M318.228 350.647C379.519 287.147 550.744 201.447 745.31 366.647C939.876 531.847 1339.82 489.814 1515.47 448.147C1609.85 412.647 1831.05 362.947 1960.76 448.147C2090.47 533.347 2203.97 497.981 2244.5 469.647" stroke="#5CBDBC" stroke-opacity="100" class="nHViZoAs_27"></path>
<path d="M329.977 360.647C391.268 297.147 562.493 211.447 757.059 376.647C951.625 541.847 1351.57 499.814 1527.22 458.147C1621.6 422.647 1842.8 372.947 1972.51 458.147C2102.22 543.347 2215.72 507.981 2256.25 479.647" stroke="#5CBDBC" stroke-opacity="100" class="nHViZoAs_28"></path>
<path d="M341.727 370.647C403.018 307.147 574.243 221.447 768.809 386.647C963.375 551.847 1363.32 509.814 1538.97 468.147C1633.35 432.647 1854.55 382.947 1984.26 468.147C2113.97 553.347 2227.47 517.981 2268 489.647" stroke="#5CBDBC" stroke-opacity="100" class="nHViZoAs_29"></path>
<path d="M353.475 380.647C414.767 317.147 585.991 231.447 780.558 396.647C975.124 561.847 1375.07 519.814 1550.72 478.147C1645.1 442.647 1866.3 392.947 1996.01 478.147C2125.72 563.347 2239.22 527.981 2279.75 499.647" stroke="#5CBDBC" stroke-opacity="100" class="nHViZoAs_30"></path>
<path d="M365.225 390.647C426.516 327.147 597.741 241.447 792.307 406.647C986.873 571.847 1386.82 529.814 1562.47 488.147C1656.85 452.647 1878.05 402.947 2007.76 488.147C2137.47 573.347 2250.17 537.981 2291.5 509.647" stroke="#5CBDBC" stroke-opacity="100" class="nHViZoAs_31"></path>
<path d="M376.974 400.647C438.265 337.147 609.49 251.447 804.056 416.647C998.622 581.847 1398.56 539.814 1574.21 498.147C1668.6 462.647 1889.8 412.947 2019.51 498.147C2149.22 583.347 2262.72 547.981 2303.25 519.647" stroke="#5CBDBC" stroke-opacity="100" class="nHViZoAs_32"></path>
<path d="M388.723 410.647C450.014 347.147 621.239 261.447 815.805 426.647C1010.37 591.847 1410.31 549.814 1585.96 508.147C1680.35 472.647 1901.55 422.947 2031.26 508.147C2160.17 593.347 2274.47 557.981 2315 529.647" stroke="#5CBDBC" stroke-opacity="100" class="nHViZoAs_33"></path>
</g>
<style data-made-with="vivus-instant">.nHViZoAs_0{stroke-dasharray:2031 2033;stroke-dashoffset:2032;animation:nHViZoAs_draw 3000ms linear 0ms forwards;}.nHViZoAs_1{stroke-dasharray:2031 2033;stroke-dashoffset:2032;animation:nHViZoAs_draw 3000ms linear 0ms forwards;}.nHViZoAs_2{stroke-dasharray:2031 2033;stroke-dashoffset:2032;animation:nHViZoAs_draw 3000ms linear 0ms forwards;}.nHViZoAs_3{stroke-dasharray:2031 2033;stroke-dashoffset:2032;animation:nHViZoAs_draw 3000ms linear 0ms forwards;}.nHViZoAs_4{stroke-dasharray:2031 2033;stroke-dashoffset:2032;animation:nHViZoAs_draw 3000ms linear 0ms forwards;}.nHViZoAs_5{stroke-dasharray:2031 2033;stroke-dashoffset:2032;animation:nHViZoAs_draw 3000ms linear 0ms forwards;}.nHViZoAs_6{stroke-dasharray:2031 2033;stroke-dashoffset:2032;animation:nHViZoAs_draw 3000ms linear 0ms forwards;}.nHViZoAs_7{stroke-dasharray:2031 2033;stroke-dashoffset:2032;animation:nHViZoAs_draw 3000ms linear 0ms forwards;}.nHViZoAs_8{stroke-dasharray:2031 2033;stroke-dashoffset:2032;animation:nHViZoAs_draw 3000ms linear 0ms forwards;}.nHViZoAs_9{stroke-dasharray:2031 2033;stroke-dashoffset:2032;animation:nHViZoAs_draw 3000ms linear 0ms forwards;}.nHViZoAs_10{stroke-dasharray:2031 2033;stroke-dashoffset:2032;animation:nHViZoAs_draw 3000ms linear 0ms forwards;}.nHViZoAs_11{stroke-dasharray:2031 2033;stroke-dashoffset:2032;animation:nHViZoAs_draw 3000ms linear 0ms forwards;}.nHViZoAs_12{stroke-dasharray:2031 2033;stroke-dashoffset:2032;animation:nHViZoAs_draw 3000ms linear 0ms forwards;}.nHViZoAs_13{stroke-dasharray:2031 2033;stroke-dashoffset:2032;animation:nHViZoAs_draw 3000ms linear 0ms forwards;}.nHViZoAs_14{stroke-dasharray:2031 2033;stroke-dashoffset:2032;animation:nHViZoAs_draw 3000ms linear 0ms forwards;}.nHViZoAs_15{stroke-dasharray:2031 2033;stroke-dashoffset:2032;animation:nHViZoAs_draw 3000ms linear 0ms forwards;}.nHViZoAs_16{stroke-dasharray:2031 2033;stroke-dashoffset:2032;animation:nHViZoAs_draw 3000ms linear 0ms forwards;}.nHViZoAs_17{stroke-dasharray:2031 2033;stroke-dashoffset:2032;animation:nHViZoAs_draw 3000ms linear 0ms forwards;}.nHViZoAs_18{stroke-dasharray:2031 2033;stroke-dashoffset:2032;animation:nHViZoAs_draw 3000ms linear 0ms forwards;}.nHViZoAs_19{stroke-dasharray:2031 2033;stroke-dashoffset:2032;animation:nHViZoAs_draw 3000ms linear 0ms forwards;}.nHViZoAs_20{stroke-dasharray:2031 2033;stroke-dashoffset:2032;animation:nHViZoAs_draw 3000ms linear 0ms forwards;}.nHViZoAs_21{stroke-dasharray:2031 2033;stroke-dashoffset:2032;animation:nHViZoAs_draw 3000ms linear 0ms forwards;}.nHViZoAs_22{stroke-dasharray:2031 2033;stroke-dashoffset:2032;animation:nHViZoAs_draw 3000ms linear 0ms forwards;}.nHViZoAs_23{stroke-dasharray:2031 2033;stroke-dashoffset:2032;animation:nHViZoAs_draw 3000ms linear 0ms forwards;}.nHViZoAs_24{stroke-dasharray:2031 2033;stroke-dashoffset:2032;animation:nHViZoAs_draw 3000ms linear 0ms forwards;}.nHViZoAs_25{stroke-dasharray:2031 2033;stroke-dashoffset:2032;animation:nHViZoAs_draw 3000ms linear 0ms forwards;}.nHViZoAs_26{stroke-dasharray:2031 2033;stroke-dashoffset:2032;animation:nHViZoAs_draw 3000ms linear 0ms forwards;}.nHViZoAs_27{stroke-dasharray:2031 2033;stroke-dashoffset:2032;animation:nHViZoAs_draw 3000ms linear 0ms forwards;}.nHViZoAs_28{stroke-dasharray:2031 2033;stroke-dashoffset:2032;animation:nHViZoAs_draw 3000ms linear 0ms forwards;}.nHViZoAs_29{stroke-dasharray:2031 2033;stroke-dashoffset:2032;animation:nHViZoAs_draw 3000ms linear 0ms forwards;}.nHViZoAs_30{stroke-dasharray:2031 2033;stroke-dashoffset:2032;animation:nHViZoAs_draw 3000ms linear 0ms forwards;}.nHViZoAs_31{stroke-dasharray:2031 2033;stroke-dashoffset:2032;animation:nHViZoAs_draw 3000ms linear 0ms forwards;}.nHViZoAs_32{stroke-dasharray:2031 2033;stroke-dashoffset:2032;animation:nHViZoAs_draw 3000ms linear 0ms forwards;}.nHViZoAs_33{stroke-dasharray:2031 2033;stroke-dashoffset:2032;animation:nHViZoAs_draw 3000ms linear 0ms forwards;}@keyframes nHViZoAs_draw{100%{stroke-dashoffset:0;}}@keyframes nHViZoAs_fade{0%{stroke-opacity:1;}94.44444444444444%{stroke-opacity:1;}100%{stroke-opacity:0;}}</style></svg>
